<?xml version="1.0" encoding="UTF-8" standalone="no"?>
<svg
   id="flag-icons-gb"
   viewBox="0 0 19.999997 15"
   version="1.1"
   sodipodi:docname="flagicon_gb2.svg"
   width="19.999998"
   height="15"
   inkscape:version="1.1 (c68e22c387, 2021-05-23)"
   xmlns:inkscape="http://www.inkscape.org/namespaces/inkscape"
   xmlns:sodipodi="http://sodipodi.sourceforge.net/DTD/sodipodi-0.dtd"
   xmlns="http://www.w3.org/2000/svg"
   xmlns:svg="http://www.w3.org/2000/svg">
  <defs
     id="defs15" />
  <sodipodi:namedview
     id="namedview13"
     pagecolor="#ffffff"
     bordercolor="#cccccc"
     borderopacity="1"
     inkscape:pageshadow="0"
     inkscape:pageopacity="1"
     inkscape:pagecheckerboard="0"
     showgrid="false"
     fit-margin-top="0"
     fit-margin-left="0"
     fit-margin-right="0"
     fit-margin-bottom="0"
     inkscape:zoom="8.6068153"
     inkscape:cx="12.722476"
     inkscape:cy="39.21311"
     inkscape:window-width="1280"
     inkscape:window-height="1001"
     inkscape:window-x="-8"
     inkscape:window-y="-8"
     inkscape:window-maximized="1"
     inkscape:current-layer="flag-icons-gb" />
  <g
     id="g861"
     transform="scale(1.002649,1.0878035)">
    <path
       fill="#012169"
       d="M 0,0 H 19.947159 V 13.789255 H 0 Z"
       id="path2"
       style="stroke-width:0.0323922" />
    <path
       fill="#ffffff"
       d="m 19.947159,0 v 1.723655 l -7.40227,5.1709717 7.40227,5.0363073 v 1.858321 H 17.336885 L 9.8956591,8.7260147 2.6492343,13.789255 H 0 V 11.957867 L 7.2464306,6.92156 0,1.9929756 V 0 H 2.4154744 L 9.8956591,5.0632401 17.14209,0 Z"
       id="path4"
       style="stroke-width:0.0323922" />
    <path
       fill="#c8102e"
       d="M 7.1685111,8.7260147 7.5970617,9.6417042 1.6362899,13.789255 H 0 v -0.08079 z m 4.8309519,-0.3231909 2.1038,0.2154593 5.843896,3.9590249 v 1.211947 z M 19.947159,0 12.466973,5.2786994 12.311138,4.0936894 18.15503,0 Z M 0,0.0269607 7.5191466,5.117134 5.2205433,4.9016747 0,1.3197036 Z"
       id="path6"
       style="stroke-width:0.0323922" />
    <path
       fill="#ffffff"
       d="M 6.8568362,0 V 13.789255 H 13.090322 V 0 Z M 0,4.7400583 V 9.0491965 H 19.947159 V 4.7400583 Z"
       id="path8"
       style="stroke-width:0.0323922" />
    <path
       fill="#c8102e"
       d="M 0,5.6018851 V 8.1873697 H 19.947159 V 5.6018851 Z M 8.1035302,0 V 13.789255 H 11.843628 V 0 Z"
       id="path10"
       style="stroke-width:0.0323922" />
  </g>
</svg>
